<?xml version="1.0" encoding="utf-8"?>
<!-- Generator: Adobe Illustrator 16.0.0, SVG Export Plug-In . SVG Version: 6.00 Build 0)  -->
<!DOCTYPE svg PUBLIC "-//W3C//DTD SVG 1.1//EN" "http://www.w3.org/Graphics/SVG/1.1/DTD/svg11.dtd">
<svg version="1.1" id="Layer_1" xmlns="http://www.w3.org/2000/svg" xmlns:xlink="http://www.w3.org/1999/xlink" x="0px" y="0px"
	 width="40px" height="40px" viewBox="0 0 40 40" enable-background="new 0 0 40 40" xml:space="preserve">
<path fill="#737373" d="M20.008,7.76c4.695,0,9.39-0.001,14.085,0.001c1.062,0.001,1.936,0.717,2.147,1.754
	c0.029,0.145,0.032,0.299,0.032,0.448c0.002,6.973,0.002,13.945,0,20.917c0,1.261-0.944,2.203-2.209,2.203
	c-9.381,0.002-18.761,0.002-28.141,0c-1.245,0-2.195-0.947-2.195-2.188c-0.002-6.972-0.002-13.945,0-20.917
	c0-1.282,0.939-2.218,2.226-2.218C10.638,7.759,15.323,7.76,20.008,7.76 M19.974,31.236c4.494,0,8.987,0,13.481,0
	c0.723,0,0.971-0.242,0.971-0.947c0-6.58,0-13.161,0-19.741c-0.001-0.692-0.251-0.939-0.949-0.939
	c-8.986-0.001-17.975-0.001-26.962,0c-0.692,0-0.938,0.249-0.938,0.948c-0.001,6.59-0.001,13.179-0.001,19.771
	c0,0.08-0.003,0.16,0.007,0.239c0.06,0.46,0.352,0.669,0.94,0.669C11.007,31.236,15.491,31.236,19.974,31.236"/>
<path fill="#737373" d="M19.999,14.983c3.601,0,7.201,0,10.802,0c0.415,0,0.416,0.001,0.417,0.411
	c0.001,0.501-0.008,1.003,0.003,1.504c0.005,0.221-0.075,0.317-0.296,0.295c-0.08-0.008-0.16-0.001-0.241-0.001H9.321
	c-0.08,0-0.161-0.007-0.241,0.001c-0.218,0.021-0.306-0.066-0.3-0.292c0.011-0.541,0.011-1.083,0-1.624
	c-0.004-0.221,0.074-0.3,0.297-0.297c0.812,0.008,1.624,0.003,2.437,0.003C14.342,14.983,17.17,14.983,19.999,14.983"/>
<path fill="#737373" d="M17.621,22.971H9.197c-0.412,0-0.413-0.001-0.414-0.413c-0.001-0.481,0.015-0.964-0.006-1.445
	c-0.011-0.279,0.091-0.357,0.362-0.355c1.785,0.01,3.569,0.005,5.355,0.005c3.861,0,7.723,0,11.583,0
	c0.443,0,0.444,0.001,0.444,0.443c0.001,0.472-0.014,0.944,0.006,1.414c0.011,0.28-0.091,0.356-0.362,0.356
	C23.318,22.968,20.471,22.971,17.621,22.971"/>
</svg>
