<?xml version="1.0" encoding="utf-8"?>
<!-- Generator: Adobe Illustrator 16.0.0, SVG Export Plug-In . SVG Version: 6.00 Build 0)  -->
<!DOCTYPE svg PUBLIC "-//W3C//DTD SVG 1.1//EN" "http://www.w3.org/Graphics/SVG/1.1/DTD/svg11.dtd">
<svg version="1.1" id="Layer_1" xmlns="http://www.w3.org/2000/svg" xmlns:xlink="http://www.w3.org/1999/xlink" x="0px" y="0px"
	 width="40px" height="40px" viewBox="0 0 40 40" enable-background="new 0 0 40 40" xml:space="preserve">
<path fill="#26A8E0" d="M1.704,20.053c0-5.112-0.001-10.225,0-15.337c0-1.79,1.06-2.863,2.836-2.863
	c10.206-0.002,20.414-0.002,30.621,0c1.766,0,2.838,1.09,2.838,2.872c0.001,10.225,0.001,20.45,0,30.675
	c0,1.862-1.026,2.903-2.9,2.905c-6.187,0.007-12.372,0.003-18.559,0.003c-4.002,0-8.005,0.006-12.008-0.003
	c-1.485-0.003-2.47-0.739-2.766-2.048c-0.061-0.262-0.061-0.541-0.061-0.812C1.703,30.314,1.704,25.184,1.704,20.053 M21.252,32.465
	v-0.729c0-2.838,0.003-5.675,0-8.513c-0.002-0.884,0.208-1.691,0.816-2.361c0.798-0.878,1.795-1.141,2.922-0.87
	c1.013,0.244,1.551,0.984,1.761,1.951c0.13,0.599,0.206,1.222,0.21,1.834c0.023,2.654,0.01,5.311,0.01,7.967v0.682
	c0.231,0.015,0.409,0.037,0.589,0.037c1.455,0.003,2.91-0.015,4.365,0.011c0.494,0.009,0.653-0.144,0.649-0.646
	c-0.021-2.874,0.015-5.748-0.024-8.621c-0.012-0.957-0.088-1.934-0.301-2.863c-0.571-2.488-2.015-4.216-4.616-4.723
	c-2.497-0.486-4.654,0.082-6.218,2.242c-0.025,0.036-0.077,0.052-0.178,0.117v-2.079h-5.524c0,0.469,0.001,0.918,0,1.365
	c-0.017,4.82-0.034,9.64-0.05,14.46c-0.003,0.737-0.002,0.738,0.753,0.74c1.219,0.001,2.437,0,3.654,0H21.252z M12.695,32.456
	V15.867h-0.62c-1.418,0-2.835,0-4.253,0c-0.699,0-0.7,0.001-0.7,0.724c-0.001,5.053,0,10.105,0,15.158
	c0,0.109-0.037,0.24,0.01,0.322c0.083,0.145,0.216,0.366,0.331,0.368C9.187,32.463,10.91,32.456,12.695,32.456 M13.071,10.841
	c0.01-1.721-1.235-2.924-3.034-2.936c-1.89-0.011-3.221,1.169-3.236,2.873c-0.015,1.651,1.298,2.894,3.089,2.922
	C11.726,13.73,13.062,12.528,13.071,10.841"/>
</svg>
