<?xml version="1.0" encoding="utf-8"?>
<!-- Generator: Adobe Illustrator 16.0.0, SVG Export Plug-In . SVG Version: 6.00 Build 0)  -->
<!DOCTYPE svg PUBLIC "-//W3C//DTD SVG 1.1//EN" "http://www.w3.org/Graphics/SVG/1.1/DTD/svg11.dtd">
<svg version="1.1" id="Layer_1" xmlns="http://www.w3.org/2000/svg" xmlns:xlink="http://www.w3.org/1999/xlink" x="0px" y="0px"
	 width="40px" height="40px" viewBox="0 0 40 40" enable-background="new 0 0 40 40" xml:space="preserve">
<path fill="#737373" d="M30.312,10.56c1.8,0,3.524-0.001,5.25,0c0.946,0,1.194,0.248,1.194,1.2c0.001,3.719,0.001,7.438,0,11.157
	c0,0.905-0.269,1.171-1.188,1.171c-1.772,0.002-3.546,0-5.396,0v0.521c0,2.368,0.001,4.739,0,7.108
	c-0.001,0.848-0.285,1.14-1.125,1.14c-5.712,0.002-11.424,0.002-17.136,0c-0.839,0-1.119-0.29-1.12-1.142
	c-0.001-2.354,0-4.709,0-7.062v-0.564h-0.548c-1.648,0-3.296,0.004-4.943,0c-0.792-0.002-1.09-0.298-1.09-1.078
	c-0.003-3.797-0.003-7.596,0-11.393c0-0.763,0.296-1.056,1.054-1.057c1.772-0.002,3.544,0,5.389,0V9.701
	c0-0.8-0.01-1.601,0.004-2.401c0.009-0.621,0.312-0.915,0.929-0.945c0.095-0.004,0.189-0.001,0.283-0.001H29.1
	c0.979,0,1.213,0.238,1.213,1.231C30.314,8.555,30.312,9.525,30.312,10.56 M35.039,12.284H5.945v10.075h4.848
	c0-1.35-0.003-2.667,0.002-3.984c0.002-0.697,0.316-1.02,1-1.021c5.791-0.002,11.582-0.002,17.374,0
	c0.683,0.001,1.001,0.325,1.005,1.018c0.006,1.161,0.001,2.323,0.001,3.484v0.501h4.864V12.284z M12.52,31.13h15.927V19.068H12.52
	V31.13z M12.376,10.533h16.206V8.088H12.376V10.533z"/>
<path fill="#737373" d="M20.473,23.932c-1.632,0-3.264-0.001-4.896,0.001c-0.438,0.002-0.776-0.171-0.91-0.597
	c-0.116-0.375-0.023-0.733,0.33-0.944c0.164-0.099,0.384-0.148,0.577-0.148c3.279-0.008,6.559-0.008,9.837-0.004
	c0.573,0,0.924,0.332,0.926,0.839c0,0.502-0.356,0.848-0.922,0.851C23.768,23.937,22.119,23.932,20.473,23.932"/>
<path fill="#737373" d="M20.478,26.285c1.616,0,3.231-0.002,4.848,0c0.652,0.003,1.015,0.311,1.01,0.85
	c-0.004,0.529-0.377,0.844-1.023,0.846c-3.232,0.002-6.464-0.002-9.696,0.002c-0.435,0.002-0.784-0.143-0.937-0.562
	c-0.128-0.35-0.072-0.713,0.253-0.928c0.192-0.127,0.462-0.195,0.696-0.197C17.245,26.277,18.861,26.285,20.478,26.285"/>
</svg>
