<?xml version="1.0" encoding="utf-8"?>
<!-- Generator: Adobe Illustrator 16.0.0, SVG Export Plug-In . SVG Version: 6.00 Build 0)  -->
<!DOCTYPE svg PUBLIC "-//W3C//DTD SVG 1.1//EN" "http://www.w3.org/Graphics/SVG/1.1/DTD/svg11.dtd">
<svg version="1.1" id="Layer_1" xmlns="http://www.w3.org/2000/svg" xmlns:xlink="http://www.w3.org/1999/xlink" x="0px" y="0px"
	 width="879.747px" height="378.481px" viewBox="0 0 879.747 378.481" enable-background="new 0 0 879.747 378.481"
	 xml:space="preserve">
<polygon fill="#FFFFFF" points="218.552,105.751 218.552,170.576 191.274,170.576 191.274,105.751 167.969,8.272 194.982,8.272 
	206.899,72.122 217.492,8.272 243.977,8.272 "/>
<path fill="#FFFFFF" d="M283.173,173.012c-19.067,0-34.428-13.159-34.428-32.655V38.491c0-19.252,15.361-32.656,34.428-32.656
	c19.333,0,34.428,13.404,34.428,32.656v101.866C317.601,159.853,302.505,173.012,283.173,173.012 M289.793,36.785
	c0-4.143-2.648-6.58-6.621-6.58c-3.972,0-6.621,2.437-6.621,6.58v105.278c0,4.142,2.649,6.579,6.621,6.579
	c3.973,0,6.621-2.437,6.621-6.579V36.785z"/>
<path fill="#FFFFFF" d="M363.682,173.012c-19.068,0-33.898-13.403-33.898-31.924V8.272h27.277v133.79c0,4.143,2.913,6.58,6.621,6.58
	c3.973,0,6.886-2.437,6.886-6.58V8.272h26.218v132.816C396.786,159.609,382.75,173.012,363.682,173.012"/>
<path fill="#FFFFFF" d="M456.374,170.576c-4.237,0-6.621-15.841-6.621-25.101v-35.336c0-3.9-2.118-7.311-5.826-7.311h-6.621v67.748
	h-27.277V8.272h36.811c13.507,0,28.602,7.311,28.602,28.512v37.043c0,7.554-4.502,13.89-11.651,18.277
	c7.149,4.387,12.446,10.479,12.446,18.521v32.899c0,10.236,1.589,18.521,3.442,26.32v0.731H456.374z M448.959,38.003
	c0-4.874-1.59-6.823-4.768-6.823h-6.886v50.201h6.886c3.178,0,4.768-1.706,4.768-6.823V38.003z"/>
<rect x="517.284" y="8.272" fill="#FFFFFF" width="27.277" height="162.303"/>
<path fill="#FFFFFF" d="M594.351,170.575h-36.018V8.272h36.018c16.684,0,32.045,9.017,32.045,31.681v99.916
	C626.396,162.533,611.034,170.575,594.351,170.575 M599.117,39.953c0-5.605-2.383-8.286-7.15-8.286h-6.355v115.757h6.355
	c4.768,0,7.15-2.681,7.15-8.53V39.953z"/>
<polygon fill="#FFFFFF" points="638.841,170.575 638.841,8.272 696.045,8.272 696.045,31.667 666.118,31.667 666.118,76.021 
	685.98,76.021 685.98,98.197 666.118,98.197 666.118,146.449 696.045,146.449 696.045,170.575 "/>
<path fill="#FFFFFF" d="M744.243,170.576l-1.589-27.782h-16.155l-2.647,27.782h-24.629L720.144,8.272h30.984l20.922,162.303H744.243
	z M735.769,52.382l-6.621,67.261h11.388L735.769,52.382z"/>
<path fill="#FFFFFF" d="M809.92,173.012c-21.188,0-34.164-12.185-34.164-33.874v-17.059h23.835v19.009
	c0,5.848,2.913,9.747,9.005,9.747c5.826,0,8.739-3.655,8.739-9.747c0-14.622-6.356-26.076-16.685-42.404
	c-10.329-15.109-24.365-37.529-24.365-56.294c0-20.227,11.389-36.555,35.224-36.555c18.538,0,30.984,12.429,30.984,33.874V57.5
	h-23.569V37.272c0-5.361-3.178-8.286-7.415-8.286c-4.502,0-8.21,2.681-8.21,8.286c0,18.765,6.091,25.345,17.214,43.378
	c11.653,18.278,23.305,37.53,23.305,56.538C843.817,162.533,827.134,173.012,809.92,173.012"/>
<rect x="852.821" y="142.062" fill="#FFFFFF" width="20.921" height="28.513"/>
<path fill="#FFFFFF" d="M44.553,371.881c-19.067,0-34.428-13.16-34.428-32.655V237.36c0-19.252,15.361-32.656,34.428-32.656
	c19.333,0,34.428,13.404,34.428,32.656v101.865C78.981,358.721,63.886,371.881,44.553,371.881 M51.174,235.654
	c0-4.144-2.648-6.58-6.621-6.58c-3.972,0-6.621,2.437-6.621,6.58v105.277c0,4.144,2.649,6.579,6.621,6.579
	c3.973,0,6.621-2.436,6.621-6.579V235.654z"/>
<path fill="#FFFFFF" d="M125.062,371.881c-19.068,0-33.898-13.402-33.898-31.924V207.142h27.277v133.79
	c0,4.143,2.913,6.58,6.621,6.58c3.973,0,6.886-2.438,6.886-6.58v-133.79h26.218v132.815
	C158.167,358.479,144.13,371.881,125.062,371.881"/>
<path fill="#FFFFFF" d="M217.754,369.444c-4.237,0-6.621-15.841-6.621-25.101v-35.336c0-3.9-2.118-7.312-5.826-7.312h-6.621v67.748
	h-27.277V207.142h36.811c13.507,0,28.602,7.311,28.602,28.512v37.043c0,7.555-4.502,13.891-11.652,18.277
	c7.15,4.387,12.446,10.479,12.446,18.521v32.899c0,10.236,1.59,18.521,3.443,26.32v0.73H217.754z M210.339,236.872
	c0-4.874-1.589-6.823-4.767-6.823h-6.886v50.202h6.886c3.178,0,4.767-1.706,4.767-6.823V236.872z"/>
<path fill="#FFFFFF" d="M316.27,369.444h-37.606V207.141h37.606c13.242,0,27.807,6.824,27.807,28.026v31.924
	c0,8.773-3.972,15.841-12.976,19.74c9.004,4.386,12.976,10.722,12.976,19.739v34.849
	C344.077,362.621,329.512,369.444,316.27,369.444 M317.859,236.873c0-4.874-1.589-6.824-5.032-6.824h-6.885v47.277h6.885
	c3.443,0,5.032-2.193,5.032-7.067V236.873z M317.859,305.108c0-4.874-1.589-7.067-5.032-7.067h-6.885v48.739h6.885
	c3.443,0,5.032-1.949,5.032-6.823V305.108z"/>
<path fill="#FFFFFF" d="M389.63,371.881c-19.068,0-33.898-13.402-33.898-31.924V207.142h27.277v133.79
	c0,4.143,2.913,6.58,6.621,6.58c3.973,0,6.886-2.438,6.886-6.58v-133.79h26.218v132.815
	C422.734,358.479,408.698,371.881,389.63,371.881"/>
<path fill="#FFFFFF" d="M466.433,371.881c-21.188,0-34.165-12.185-34.165-33.874v-17.059h23.835v19.009
	c0,5.849,2.913,9.747,9.005,9.747c5.826,0,8.739-3.655,8.739-9.747c0-14.622-6.356-26.076-16.685-42.403
	c-10.329-15.109-24.365-37.529-24.365-56.294c0-20.228,11.388-36.556,35.223-36.556c18.538,0,30.984,12.429,30.984,33.874v17.79
	h-23.569v-20.227c0-5.361-3.179-8.286-7.415-8.286c-4.502,0-8.21,2.681-8.21,8.286c0,18.765,6.091,25.345,17.214,43.378
	c11.652,18.277,23.305,37.529,23.305,56.538C500.33,361.402,483.646,371.881,466.433,371.881"/>
<rect x="510.923" y="207.142" fill="#FFFFFF" width="27.277" height="162.303"/>
<polygon fill="#FFFFFF" points="600.967,369.444 581.104,296.092 575.013,273.914 575.013,369.444 551.707,369.444 551.707,207.142 
	577.661,207.142 595.141,280.007 600.437,302.671 600.437,207.142 623.478,207.142 623.478,369.444 "/>
<polygon fill="#FFFFFF" points="636.985,369.444 636.985,207.142 694.189,207.142 694.189,230.536 664.263,230.536 664.263,274.89 
	684.125,274.89 684.125,297.066 664.263,297.066 664.263,345.318 694.189,345.318 694.189,369.444 "/>
<path fill="#FFFFFF" d="M734.973,371.881c-21.188,0-34.164-12.185-34.164-33.874v-17.059h23.835v19.009
	c0,5.849,2.913,9.747,9.005,9.747c5.826,0,8.739-3.655,8.739-9.747c0-14.622-6.356-26.076-16.685-42.403
	c-10.329-15.109-24.365-37.529-24.365-56.294c0-20.228,11.389-36.556,35.224-36.556c18.538,0,30.984,12.429,30.984,33.874v17.79
	h-23.569v-20.227c0-5.361-3.179-8.286-7.415-8.286c-4.502,0-8.21,2.681-8.21,8.286c0,18.765,6.091,25.345,17.214,43.378
	c11.653,18.277,23.305,37.529,23.305,56.538C768.87,361.402,752.187,371.881,734.973,371.881"/>
<path fill="#FFFFFF" d="M809.919,371.881c-21.188,0-34.164-12.185-34.164-33.874v-17.059h23.835v19.009
	c0,5.849,2.913,9.747,9.005,9.747c5.826,0,8.739-3.655,8.739-9.747c0-14.622-6.356-26.076-16.685-42.403
	c-10.329-15.109-24.365-37.529-24.365-56.294c0-20.228,11.389-36.556,35.224-36.556c18.538,0,30.984,12.429,30.984,33.874v17.79
	h-23.569v-20.227c0-5.361-3.179-8.286-7.415-8.286c-4.502,0-8.21,2.681-8.21,8.286c0,18.765,6.091,25.345,17.214,43.378
	c11.652,18.277,23.305,37.529,23.305,56.538C843.816,361.402,827.133,371.881,809.919,371.881"/>
<rect x="852.82" y="340.932" fill="#FFFFFF" width="20.921" height="28.513"/>
</svg>
