<?xml version="1.0" encoding="utf-8"?>
<!-- Generator: Adobe Illustrator 16.0.0, SVG Export Plug-In . SVG Version: 6.00 Build 0)  -->
<!DOCTYPE svg PUBLIC "-//W3C//DTD SVG 1.1//EN" "http://www.w3.org/Graphics/SVG/1.1/DTD/svg11.dtd">
<svg version="1.1" id="Layer_1" xmlns="http://www.w3.org/2000/svg" xmlns:xlink="http://www.w3.org/1999/xlink" x="0px" y="0px"
	 width="21.667px" height="20.667px" viewBox="0 0 21.667 20.667" enable-background="new 0 0 21.667 20.667" xml:space="preserve">
<path fill="#FFFFFF" d="M15.031,13.78l0.176-0.233c1.053-1.411,1.602-3.08,1.589-4.824c-0.016-2.135-0.865-4.137-2.389-5.637
	C12.898,1.6,10.906,0.782,8.796,0.782h-0.06c-2.136,0.016-4.138,0.864-5.64,2.389C1.596,4.695,0.777,6.709,0.794,8.843
	c0.016,2.134,0.865,4.136,2.388,5.639c1.512,1.486,3.493,2.303,5.588,2.303c0.028,0,0.057,0,0.085,0
	c1.826-0.015,3.61-0.664,5.024-1.832l0.213-0.174l5.597,5.047c0.035,0.031,0.066,0.05,0.092,0.062l0.839-1.034
	c-0.015-0.029-0.041-0.07-0.09-0.115L15.031,13.78z M8.847,15.714H8.794c-1.829,0-3.555-0.708-4.861-1.996
	c-1.319-1.3-2.055-3.034-2.068-4.883C1.835,5.014,4.921,1.881,8.743,1.852h0.053c3.792,0,6.901,3.086,6.93,6.879
	C15.754,12.553,12.669,15.685,8.847,15.714"/>
</svg>
