<?xml version="1.0" encoding="utf-8"?>
<!-- Generator: Adobe Illustrator 16.0.0, SVG Export Plug-In . SVG Version: 6.00 Build 0)  -->
<!DOCTYPE svg PUBLIC "-//W3C//DTD SVG 1.1//EN" "http://www.w3.org/Graphics/SVG/1.1/DTD/svg11.dtd">
<svg version="1.1" id="Layer_1" xmlns="http://www.w3.org/2000/svg" xmlns:xlink="http://www.w3.org/1999/xlink" x="0px" y="0px"
	 width="326.179px" height="426.295px" viewBox="348.914 94.052 326.179 426.295"
	 enable-background="new 348.914 94.052 326.179 426.295" xml:space="preserve">
<path fill="#00A9EA" d="M574.337,113.467c0-6.672,3.858-8.276,8.577-3.557l76.327,76.333c4.718,4.719,3.121,8.577-3.552,8.577
	h-69.225c-6.672,0-12.134-5.462-12.134-12.135v-69.218H574.337z M516.368,297.33h-8.878v58.318h8.7
	c7.114,0,12.54-2.353,16.257-7.041c3.717-4.706,5.579-11.409,5.579-20.134v-4.08c0-8.878-1.844-15.612-5.518-20.189
	C528.822,299.615,523.446,297.33,516.368,297.33z M455.5,301.735c-1.18-1.34-2.697-2.409-4.559-3.208
	c-1.862-0.799-4.074-1.198-6.63-1.198h-16.079v27.42h16.079c2.562,0,4.768-0.319,6.63-0.958c1.861-0.639,3.379-1.53,4.559-2.672
	c1.18-1.143,2.046-2.513,2.611-4.11c0.564-1.598,0.842-3.336,0.842-5.223s-0.277-3.692-0.842-5.431
	C457.546,304.617,456.68,303.081,455.5,301.735z M662.958,209.369H571.91c-6.672,0-12.135-5.462-12.135-12.134v-91.048
	c0-6.672-5.462-12.134-12.134-12.134H361.048c-6.672,0-12.134,5.462-12.134,12.134v402.026c0,6.673,5.462,12.135,12.134,12.135
	h301.916c6.673,0,12.129-5.462,12.129-12.135V221.503C675.086,214.831,669.631,209.369,662.958,209.369z M474.908,323.128
	c-1.48,3.398-3.631,6.298-6.451,8.7c-2.819,2.402-6.26,4.251-10.321,5.548c-4.062,1.296-8.669,1.947-13.83,1.947h-16.079V370.1
	h-18.002v-87.355h34.081c5.161,0,9.769,0.719,13.83,2.163s7.502,3.453,10.321,6.027c2.82,2.574,4.971,5.64,6.451,9.179
	c1.481,3.539,2.219,7.391,2.219,11.551C477.127,315.903,476.39,319.731,474.908,323.128z M556.268,328.468
	c0,6.242-0.971,11.913-2.912,17.013s-4.682,9.48-8.221,13.142c-3.539,3.662-7.772,6.494-12.688,8.485
	c-4.922,2.003-10.347,2.998-16.257,2.998h-26.702v-87.361h26.88c5.88,0,11.269,1.014,16.171,3.029
	c4.903,2.015,9.1,4.86,12.602,8.522c3.502,3.662,6.23,8.048,8.19,13.172c1.96,5.125,2.942,10.801,2.942,17.038v3.963H556.268z
	 M626.229,297.33h-38.88v22.561h34.561v14.519H587.35v35.696h-18.002v-87.361h56.882V297.33L626.229,297.33z"/>
</svg>
