<?xml version="1.0" encoding="utf-8"?>
<!-- Generator: Adobe Illustrator 16.0.0, SVG Export Plug-In . SVG Version: 6.00 Build 0)  -->
<!DOCTYPE svg PUBLIC "-//W3C//DTD SVG 1.1//EN" "http://www.w3.org/Graphics/SVG/1.1/DTD/svg11.dtd">
<svg version="1.1" id="Layer_1" xmlns="http://www.w3.org/2000/svg" xmlns:xlink="http://www.w3.org/1999/xlink" x="0px" y="0px"
	 width="298.734px" height="102.227px" viewBox="0 0 298.734 102.227" enable-background="new 0 0 298.734 102.227"
	 xml:space="preserve">
<polygon fill="#FFFFFF" points="119.83,3 119.83,31.535 139.229,31.535 143.403,39.89 147.569,31.535 168.196,31.535 168.196,3 "/>
<polygon fill="#FFFFFF" points="123.943,83.962 107.801,51.647 98.823,97.784 104.78,97.784 110.078,68.754 123.942,97.292 
	137.859,68.76 143.046,97.784 149.003,97.784 140.148,51.517 "/>
<polygon fill="#FFFFFF" points="237.667,84.816 207.126,51.889 207.126,97.782 213.05,97.782 213.05,66.815 243.591,99.502 
	243.591,52.948 237.667,54.822 "/>
<path fill="#763085" d="M135.658,20.419c-0.804,0.887-1.922,1.377-3.15,1.377h-2.161v-9.041h2.161c1.293,0,2.436,0.467,3.212,1.317
	c0.75,0.821,1.12,1.956,1.048,3.2C136.844,18.409,136.439,19.555,135.658,20.419 M132.508,11.5h-3.491v11.537h3.491
	c1.694,0,3.191-0.611,4.217-1.718c0.969-1.046,1.462-2.485,1.388-4.049c0.074-1.643-0.396-3.058-1.358-4.093
	C135.751,12.095,134.243,11.5,132.508,11.5"/>
<path fill="#763085" d="M145.023,21.668h-2.516V17.54h2.516c1.229,0,2.192,0.905,2.192,2.064
	C147.215,20.76,146.252,21.668,145.023,21.668 M142.507,12.883h2.13c1.402,0,2.085,0.524,2.085,1.604
	c0,1.117-0.701,1.684-2.085,1.684h-2.13V12.883z M146.828,16.836c0.853-0.449,1.237-1.18,1.237-2.349
	c0-1.954-1.185-2.988-3.428-2.988h-3.457v11.537h3.457c2.383,0,3.922-1.347,3.922-3.432
	C148.559,18.273,147.992,17.365,146.828,16.836"/>
<path fill="#763085" d="M155.474,21.668h-2.517V17.54h2.517c1.229,0,2.19,0.905,2.19,2.064
	C157.664,20.76,156.702,21.668,155.474,21.668 M152.957,12.883h2.13c1.402,0,2.084,0.524,2.084,1.604
	c0,1.117-0.701,1.684-2.084,1.684h-2.13V12.883z M157.278,16.836c0.854-0.449,1.236-1.18,1.236-2.349
	c0-1.954-1.185-2.988-3.428-2.988h-3.457v11.537h3.457c2.383,0,3.922-1.347,3.922-3.432
	C159.009,18.273,158.442,17.365,157.278,16.836"/>
<path fill="#FFFFFF" d="M288.505,47.251c-2.088,0-3.492-1.493-3.492-3.714c0-2.229,1.404-3.726,3.492-3.726
	c2.096,0,3.504,1.497,3.504,3.726C292.009,45.758,290.601,47.251,288.505,47.251 M288.505,39.097c-2.513,0-4.266,1.826-4.266,4.44
	s1.753,4.44,4.266,4.44c2.512,0,4.269-1.826,4.269-4.44C292.773,41.326,291.452,39.097,288.505,39.097"/>
<path fill="#FFFFFF" d="M287.604,43.443v-1.607h1.328c0.572,0,0.832,0.408,0.832,0.788c0,0.394-0.271,0.82-0.867,0.82H287.604z
	 M290.489,42.506c-0.045-0.702-0.541-1.409-1.557-1.409h-2.057v4.749h0.729v-1.714h0.823l1.446,1.714h0.736v-0.225l-1.303-1.52
	C290.172,43.91,290.528,43.159,290.489,42.506"/>
<path fill="#FFFFFF" d="M192.923,75.671c0,9.556-7.345,17.329-16.374,17.329c-9.028,0-16.374-7.773-16.374-17.329
	s7.346-17.331,16.374-17.331C185.578,58.34,192.923,66.116,192.923,75.671 M176.549,52.603c-12.358,0-22.411,10.349-22.411,23.068
	c0,12.719,10.053,23.066,22.411,23.066c12.359,0,22.413-10.348,22.413-23.066C198.962,62.952,188.908,52.603,176.549,52.603"/>
<path fill="#FFFFFF" d="M21.302,92.302H10.323v-45.28h10.979c13.495,0,22.112,9.889,21.349,22.6
	C43.414,80.767,34.797,92.302,21.302,92.302 M21.302,41.45H4.375v56.347h16.927c16.776,0,28.135-12.008,27.373-28.176
	C49.437,52.516,38.078,41.45,21.302,41.45"/>
<path fill="#FFFFFF" d="M85.403,79.555c0,6.455-1.201,13.865-10.568,13.865c-7.424,0-11.032-4.535-11.032-13.865V52.829
	l-5.923,1.875v24.848c-0.038,6.931,1.458,11.871,4.579,15.103c2.809,2.908,6.973,4.384,12.376,4.384
	c14.516,0,16.437-10.41,16.489-19.482V52.829l-5.921,1.875V79.555z"/>
<polygon fill="#FFFFFF" points="250.595,53.62 248.729,59.296 263.229,59.296 263.229,97.782 269.151,97.782 269.151,59.296 
	281.786,59.296 283.652,53.62 "/>
</svg>
