<?xml version="1.0" encoding="utf-8"?>
<!-- Generator: Adobe Illustrator 16.0.0, SVG Export Plug-In . SVG Version: 6.00 Build 0)  -->
<!DOCTYPE svg PUBLIC "-//W3C//DTD SVG 1.1//EN" "http://www.w3.org/Graphics/SVG/1.1/DTD/svg11.dtd">
<svg version="1.1" id="Layer_1" xmlns="http://www.w3.org/2000/svg" xmlns:xlink="http://www.w3.org/1999/xlink" x="0px" y="0px"
	 width="939.241px" height="378.48px" viewBox="0 0 939.241 378.48" enable-background="new 0 0 939.241 378.48"
	 xml:space="preserve">
<path fill="#001689" d="M62.975,126.374H8.692v175.572h54.282c53.798,0,90.228-37.411,87.784-87.788
	C153.203,160.854,116.772,126.374,62.975,126.374 M62.975,284.829H27.763V143.733h35.212c43.281,0,70.913,30.813,68.469,70.425
	C133.888,248.885,106.255,284.829,62.975,284.829"/>
<path fill="#001689" d="M268.549,245.107c0,20.112-3.849,43.202-33.89,43.202c-23.809,0-35.382-14.133-35.382-43.202v-83.28
	l-18.992,5.843v77.424c-0.127,21.598,4.674,36.991,14.684,47.061c9.007,9.063,22.361,13.658,39.69,13.658
	c46.55,0,52.711-32.435,52.882-60.705v-83.28l-18.992,5.843V245.107z"/>
<polygon fill="#001689" points="392.148,258.84 340.379,158.144 311.586,301.903 330.691,301.903 347.684,211.452 392.143,300.376 
	436.778,211.473 453.413,301.903 472.513,301.903 444.117,157.742 "/>
<path fill="#001689" d="M560.856,161.126c-39.634,0-71.873,32.245-71.873,71.878c0,39.635,32.239,71.878,71.873,71.878
	c39.638,0,71.878-32.243,71.878-71.878C632.734,193.371,600.494,161.126,560.856,161.126 M613.367,233.004
	c0,29.776-23.556,54.001-52.511,54.001c-28.954,0-52.511-24.225-52.511-54.001c0-29.775,23.557-54.001,52.511-54.001
	C589.811,179.003,613.367,203.229,613.367,233.004"/>
<polygon fill="#001689" points="756.865,261.5 658.917,158.9 658.917,301.903 677.913,301.903 677.913,205.409 775.861,307.264 
	775.861,162.202 756.865,168.041 "/>
<polygon fill="#001689" points="798.322,164.292 792.338,181.981 838.84,181.981 838.84,301.903 857.836,301.903 857.836,181.981 
	898.356,181.981 904.338,164.292 "/>
<polygon fill="#752F8A" points="378.956,6.565 378.956,95.48 441.172,95.48 454.556,121.514 467.917,95.48 534.071,95.48 
	534.071,6.565 "/>
<path fill="#FFFFFF" d="M419.614,33.049H408.42v35.948h11.194c5.433,0,10.233-1.902,13.523-5.352
	c3.107-3.26,4.687-7.746,4.452-12.614c0.235-5.121-1.27-9.532-4.356-12.757C430.018,34.904,425.178,33.049,419.614,33.049
	 M429.716,60.844c-2.579,2.763-6.166,4.287-10.102,4.287h-6.93V36.964h6.93c4.15,0,7.811,1.456,10.298,4.102
	c2.409,2.559,3.596,6.094,3.365,9.974C433.522,54.576,432.226,58.15,429.716,60.844"/>
<path fill="#FFFFFF" d="M465.539,49.677c2.737-1.4,3.967-3.677,3.967-7.319c0-6.089-3.8-9.311-10.992-9.311h-11.089v35.951h11.089
	c7.641,0,12.576-4.202,12.576-10.699C471.09,54.155,469.275,51.326,465.539,49.677 M451.684,37.361h6.83
	c4.494,0,6.685,1.634,6.685,4.996c0,3.483-2.247,5.249-6.685,5.249h-6.83V37.361z M459.753,64.734h-8.069V51.867h8.069
	c3.941,0,7.03,2.824,7.03,6.432C466.783,61.905,463.694,64.734,459.753,64.734"/>
<path fill="#FFFFFF" d="M499.054,49.677c2.736-1.4,3.967-3.677,3.967-7.319c0-6.089-3.801-9.311-10.992-9.311h-11.093v35.951h11.093
	c7.642,0,12.576-4.202,12.576-10.699C504.605,54.155,502.79,51.326,499.054,49.677 M485.199,37.361h6.83
	c4.494,0,6.681,1.634,6.681,4.996c0,3.483-2.248,5.249-6.681,5.249h-6.83V37.361z M493.268,64.734h-8.069V51.867h8.069
	c3.94,0,7.025,2.824,7.025,6.432C500.293,61.905,497.208,64.734,493.268,64.734"/>
<polygon fill="#232222" points="20.466,352.987 9.242,335.556 5.716,335.556 4.935,335.605 4.935,336.618 18.354,357.216 
	18.354,371.531 22.574,371.531 22.574,357.218 35.919,336.814 36.045,336.57 36.045,335.556 31.738,335.556 "/>
<path fill="#232222" d="M59.916,345.241c-7.602,0-13.122,5.64-13.122,13.415c0,7.785,5.398,13.22,13.122,13.22
	c7.728,0,13.122-5.435,13.122-13.22C73.038,350.881,67.518,345.241,59.916,345.241 M59.916,367.953
	c-5.416,0-9.199-3.823-9.199-9.297c0-5.559,3.871-9.592,9.199-9.592s9.195,4.033,9.195,9.592
	C69.111,364.13,65.332,367.953,59.916,367.953"/>
<path fill="#232222" d="M110.109,359.935c0,4.63-3.251,8.022-7.733,8.068c-2.43,0.018-4.508-0.672-5.861-2.012
	c-1.326-1.315-1.998-3.205-1.998-5.614v-14.743h-3.976v14.792c0,6.986,4.609,11.499,11.757,11.499
	c3.185-0.044,5.939-1.182,7.859-3.185v2.791h3.923v-25.897h-3.971V359.935z"/>
<path fill="#232222" d="M144.104,345.438c-3.02,0-5.612,1.048-7.336,2.891l-0.061-2.644h-3.81v25.847h3.972v-14.94
	c0-4.064,3.181-7.284,7.235-7.33c1.37,0,2.623,0.343,3.718,1.017l0.703,0.432l1.832-3.347l-0.641-0.391
	C147.944,345.9,146.059,345.367,144.104,345.438"/>
<path fill="#232222" d="M238.682,349.191c-2.164-2.509-5.429-3.902-9.295-3.902c-7.763,0-12.978,5.35-12.978,13.319
	c0,7.966,5.197,13.315,12.926,13.315c3.683,0,7.074-1.514,9.347-4.074v3.682h3.923v-35.977h-3.923V349.191z M229.483,368.003
	c-5.555,0-9.147-3.688-9.147-9.395c0-6.964,4.726-9.446,9.147-9.446c5.302,0,9.147,3.952,9.147,9.393
	C238.63,364.119,234.868,368.003,229.483,368.003"/>
<path fill="#232222" d="M273.437,345.289c-7.48,0-13.122,5.726-13.122,13.318c0,7.813,5.398,13.269,13.122,13.269
	c4.503,0,8.754-1.906,11.097-4.979l0.463-0.606l-2.95-2.356l-0.48,0.642c-1.505,1.988-4.844,3.378-8.13,3.378
	c-3.962,0-8.156-2.309-8.994-7.434h21.697l0.07-0.705c0.432-4.364-0.571-8.027-2.902-10.596
	C281.013,346.684,277.503,345.289,273.437,345.289 M264.443,356.843c0.771-4.689,4.299-7.778,8.994-7.778
	c5.341,0,8.662,2.888,9.02,7.778H264.443z"/>
<path fill="#232222" d="M325.333,349.284c-2.195-2.477-5.46-3.896-9.152-3.896c-7.479,0-13.122,5.684-13.122,13.22
	c0,7.594,5.643,13.317,13.122,13.317c3.635,0,6.808-1.403,9.152-3.998v3.604h3.971v-25.847h-3.971V349.284z M323.203,365.093
	c-1.693,1.902-4.12,2.91-7.022,2.91c-5.302,0-9.146-3.951-9.146-9.396c0-5.415,3.844-9.347,9.146-9.347
	c6.428,0,9.361,4.858,9.361,9.37C325.542,361.1,324.712,363.395,323.203,365.093"/>
<path fill="#232222" d="M358.48,356.557l-0.864-0.148c-3.478-0.612-6.363-1.31-6.437-3.627c-0.022-0.764,0.232-1.402,0.777-1.957
	c1.056-1.075,3.129-1.711,5.581-1.711c2.667,0.006,4.962,0.356,7.244,2.361l0.568,0.5l2.531-2.695l-0.572-0.533
	c-2.448-2.295-5.668-3.457-9.574-3.457c-0.061-0.002-0.123-0.002-0.179-0.002c-3.518,0-6.555,1.025-8.353,2.825
	c-1.278,1.276-1.915,2.876-1.894,4.752c0.057,5.63,5.621,6.558,10.098,7.302c4.295,0.688,7.332,1.381,7.258,4.015
	c-0.136,3.493-4.792,3.87-6.791,3.87c-3.521,0-6.607-1.418-8.256-3.792l-0.502-0.724l-2.928,2.604l0.362,0.565
	c2.13,3.269,6.345,5.219,11.276,5.219c2.475,0,10.57-0.543,10.757-7.53C368.853,358.296,362.857,357.29,358.48,356.557"/>
<path fill="#232222" d="M385.083,369.275c0,1.771,1.37,2.699,2.723,2.699c1.357,0,2.727-0.928,2.727-2.699
	C390.533,365.732,385.083,365.732,385.083,369.275"/>
<path fill="#232222" d="M453.753,335.015c-12.529,0-18.141,9.281-18.141,18.48c0,8.971,5.678,18.625,18.141,18.625
	c12.394,0,18.087-9.601,18.131-18.521c0.031-5.401-1.806-10.24-5.17-13.622C463.485,336.729,459.003,335.015,453.753,335.015
	 M453.753,368.102c-9.535,0-13.921-7.55-13.969-14.562c-0.026-4.31,1.388-8.122,3.985-10.73c2.452-2.468,5.904-3.773,9.984-3.773
	c9.679,0,14.013,7.288,14.013,14.508C467.766,360.555,463.38,368.102,453.753,368.102"/>
<path fill="#232222" d="M509.624,359.935c0,4.63-3.251,8.022-7.729,8.068c-2.417,0.026-4.513-0.672-5.86-2.012
	c-1.331-1.315-2.003-3.205-2.003-5.614v-14.743h-3.971v14.792c0,6.986,4.607,11.499,11.752,11.499
	c3.189-0.044,5.942-1.182,7.858-3.185v2.791h3.923v-25.897h-3.971V359.935z"/>
<path fill="#232222" d="M543.619,345.438c-3.021,0-5.612,1.048-7.336,2.891l-0.065-2.644h-3.805v25.847h3.975v-14.94
	c0-4.064,3.182-7.284,7.231-7.33c1.375,0,2.623,0.343,3.718,1.017l0.703,0.432l1.837-3.347l-0.642-0.391
	C547.458,345.9,545.569,345.351,543.619,345.438"/>
<path fill="#232222" d="M606.144,345.289c-3.87,0-7.134,1.394-9.299,3.904v-13.639h-3.919v35.977h3.919v-3.682
	c2.269,2.561,5.664,4.074,9.347,4.074c7.733,0,12.926-5.35,12.926-13.315C619.118,350.639,613.903,345.289,606.144,345.289
	 M606.044,368.003c-5.386,0-9.147-3.884-9.147-9.448c0-5.44,3.849-9.393,9.147-9.393c4.421,0,9.15,2.482,9.15,9.446
	C615.195,364.315,611.604,368.003,606.044,368.003"/>
<path fill="#232222" d="M656.452,359.935c0,4.63-3.255,8.022-7.733,8.068c-2.413,0.026-4.512-0.672-5.86-2.012
	c-1.33-1.315-2.003-3.205-2.003-5.614v-14.743h-3.972v14.792c0,6.986,4.609,11.499,11.757,11.499
	c3.186-0.044,5.939-1.182,7.855-3.185v2.791h3.923v-25.897h-3.967V359.935z"/>
<path fill="#232222" d="M689.6,356.557l-0.864-0.148c-3.479-0.612-6.363-1.31-6.438-3.627c-0.021-0.764,0.231-1.402,0.777-1.957
	c1.056-1.075,3.129-1.711,5.581-1.711c2.676-0.01,4.962,0.354,7.245,2.361l0.566,0.5l2.527-2.695l-0.568-0.533
	c-2.448-2.295-5.669-3.457-9.573-3.457c-3.593-0.122-6.703,0.992-8.532,2.823c-1.274,1.276-1.911,2.876-1.895,4.752
	c0.058,5.63,5.621,6.558,10.1,7.302c4.294,0.688,7.331,1.381,7.257,4.015c-0.136,3.493-4.792,3.87-6.791,3.87
	c-3.518,0-6.607-1.418-8.256-3.792l-0.502-0.724l-2.933,2.604l0.37,0.565c2.126,3.269,6.341,5.219,11.272,5.219
	c2.475,0,10.569-0.543,10.758-7.53C699.972,358.296,693.977,357.29,689.6,356.557"/>
<path fill="#232222" d="M716.263,338.549c0,1.772,1.37,2.699,2.723,2.699c1.354,0,2.724-0.927,2.724-2.699
	C721.709,335.004,716.263,335.008,716.263,338.549"/>
<rect x="716.953" y="345.585" fill="#232222" width="3.971" height="25.946"/>
<path fill="#232222" d="M193.263,338.538c0,1.772,1.366,2.699,2.723,2.699c1.353,0,2.719-0.927,2.719-2.699
	C198.705,334.992,193.263,334.997,193.263,338.538"/>
<rect x="193.948" y="345.574" fill="#232222" width="3.971" height="25.946"/>
<path fill="#232222" d="M751.768,345.241h-0.01c-3.185,0.044-5.942,1.181-7.862,3.183v-2.74h-3.919v25.848h3.971v-14.3
	c0-4.63,3.251-8.023,7.728-8.069c2.483,0.068,4.514,0.674,5.861,2.012c1.331,1.316,2.003,3.205,2.003,5.614v14.743h3.971v-14.793
	C763.51,349.753,758.903,345.241,751.768,345.241"/>
<path fill="#232222" d="M793.844,345.289c-7.48,0-13.118,5.726-13.118,13.318c0,7.813,5.391,13.269,13.118,13.269
	c4.504,0,8.754-1.906,11.093-4.979l0.463-0.606l-2.945-2.356l-0.484,0.642c-1.501,1.988-4.84,3.378-8.126,3.378
	c-3.962,0-8.16-2.309-8.998-7.434h21.706l0.07-0.705c0.427-4.364-0.576-8.027-2.902-10.596
	C801.42,346.684,797.917,345.289,793.844,345.289 M784.85,356.843c0.777-4.689,4.299-7.778,8.994-7.778
	c5.346,0,8.662,2.888,9.02,7.778H784.85z"/>
<path fill="#232222" d="M834.822,356.557l-0.864-0.148c-3.479-0.612-6.363-1.31-6.438-3.627c-0.021-0.764,0.231-1.402,0.777-1.957
	c1.056-1.075,3.129-1.711,5.581-1.711c2.684-0.01,4.962,0.354,7.244,2.361l0.567,0.5l2.527-2.695l-0.568-0.533
	c-2.447-2.295-5.669-3.457-9.573-3.457c-3.583-0.122-6.703,0.992-8.532,2.823c-1.274,1.276-1.911,2.876-1.895,4.752
	c0.058,5.63,5.621,6.558,10.099,7.302c4.295,0.688,7.332,1.381,7.258,4.015c-0.136,3.493-4.792,3.87-6.791,3.87
	c-3.517,0-6.607-1.418-8.256-3.792l-0.502-0.724l-2.933,2.604l0.37,0.565c2.126,3.269,6.341,5.219,11.272,5.219
	c2.475,0,10.57-0.543,10.757-7.53C845.194,358.296,839.199,357.29,834.822,356.557"/>
<path fill="#232222" d="M873.246,356.557l-0.864-0.148c-3.479-0.612-6.362-1.31-6.438-3.627c-0.021-0.764,0.232-1.402,0.777-1.957
	c1.057-1.075,3.129-1.711,5.582-1.711c2.648-0.01,4.961,0.354,7.239,2.361l0.571,0.5l2.527-2.695l-0.568-0.533
	c-2.447-2.295-5.668-3.457-9.573-3.457c-3.597-0.122-6.703,0.992-8.532,2.823c-1.278,1.276-1.911,2.876-1.895,4.752
	c0.058,5.63,5.621,6.558,10.1,7.302c4.293,0.688,7.331,1.381,7.257,4.015c-0.135,3.493-4.792,3.87-6.79,3.87
	c-3.518,0-6.606-1.418-8.257-3.792l-0.502-0.724l-2.933,2.604l0.371,0.565c2.125,3.269,6.341,5.219,11.271,5.219
	c2.475,0,10.57-0.543,10.758-7.53C883.619,358.296,877.623,357.29,873.246,356.557"/>
<path fill="#232222" d="M899.852,369.275c0,1.771,1.37,2.699,2.723,2.699c1.354,0,2.724-0.928,2.724-2.699
	C905.298,365.732,899.852,365.732,899.852,369.275"/>
<path fill="#001689" d="M919.778,119.168c-8.104,0-13.76,5.723-13.76,13.915c0,8.191,5.655,13.915,13.76,13.915
	c8.107,0,13.768-5.724,13.768-13.915C933.545,126.155,929.287,119.168,919.778,119.168 M919.778,144.725
	c-6.738,0-11.264-4.679-11.264-11.642c0-6.983,4.525-11.679,11.264-11.679c6.76,0,11.307,4.695,11.307,11.679
	C931.084,140.046,926.538,144.725,919.778,144.725"/>
<path fill="#001689" d="M926.179,129.852c-0.14-2.198-1.741-4.416-5.018-4.416h-6.639v14.884h2.349v-5.372h2.658l4.668,5.372h2.37
	v-0.705l-4.197-4.762C925.159,134.251,926.306,131.898,926.179,129.852 M916.872,132.787v-5.04h4.29
	c1.841,0,2.683,1.281,2.683,2.472c0,1.235-0.877,2.568-2.797,2.568H916.872z"/>
</svg>
